<?xml version="1.0" encoding="UTF-8"?>
<svg id="_x32_" xmlns="http://www.w3.org/2000/svg" version="1.1" viewBox="0 0 800 800">
  <!-- Generator: Adobe Illustrator 29.4.0, SVG Export Plug-In . SVG Version: 2.1.0 Build 152)  -->
  <defs>
    <style>
      .st0 {
        fill: #fa864a;
      }
    </style>
  </defs>
  <path class="st0" d="M214.6,531c-35.7,0-64.6,28.9-64.6,64.6s28.9,64.6,64.6,64.6,64.5-28.9,64.5-64.6-28.9-64.6-64.5-64.6ZM214.6,624.6c-16.1,0-29.1-13-29.1-29s13-29.1,29.1-29.1,29,13,29,29.1-13,29-29,29Z"/>
  <path class="st0" d="M640,531c-35.7,0-64.6,28.9-64.6,64.6s28.9,64.6,64.6,64.6,64.6-28.9,64.6-64.6-28.9-64.6-64.6-64.6ZM640,624.6c-16.1,0-29.1-13-29.1-29s13-29.1,29.1-29.1,29.1,13,29.1,29.1c0,16-13,29-29.1,29Z"/>
  <path class="st0" d="M446.9,405.7c-6,0-10.9,4.9-10.9,10.9s4.9,10.9,10.9,10.9,10.9-4.9,10.9-10.9-4.9-10.9-10.9-10.9Z"/>
  <path class="st0" d="M769.5,139.9H136.1c-6,0-11.9,2.4-16.2,6.7l-38.3,38.4c-4.3,4.3-6.7,10.1-6.7,16.1v31.5c0,12.6,10.2,22.9,22.9,22.9h106.1c-20.9,36.8-86.9,129.4-87.7,131-1.4,2.7-91.2,62.1-91.2,62.1-16,11-24.9,21.1-24.9,45.4v45.7c0,7.4,1.5,14.5,4.3,21,4.1,9.7,10.9,17.9,19.5,23.7,4.3,2.9,9,5.2,14.1,6.8,5.1,1.6,30.5,4.3,36,4.3h57.3c0-46,37.4-83.4,83.4-83.4s83.4,37.4,83.4,83.4h258.7c0-46,37.4-83.4,83.4-83.4s83.4,37.4,83.4,83.4h22.7c7.4,0,14.8-1.9,21.2-4.7,9.7-4.1,17.7-12.4,23.5-21,2.9-4.3,5.2-9,6.8-14.1,1.6-5.1,2.4-10.5,2.4-16V170.4c0-16.8-13.6-30.5-30.5-30.5ZM313.1,465.1h-40.3c-6.7,0-12.1-5.4-12.1-12.1s5.4-12.1,12.1-12.1h40.3c6.7,0,12.1,5.4,12.1,12.1s-5.4,12.1-12.1,12.1ZM363.1,364.8c0,8.4-6.8,15.3-15.2,15.3h-145.6c-5.6,0-10.8-3.1-13.5-8.1-2.6-5-2.3-11,.8-15.7l37.9-56.2c2.9-4.2,7.6-6.7,12.6-6.7h107.6c8.4,0,15.2,6.8,15.2,15.2v56.2ZM530.7,526.6c0,6.3-5.1,11.4-11.4,11.4h-87.3c-6.3,0-11.4-5.1-11.4-11.4v-221.8c0-6.3,5.1-11.4,11.4-11.4h87.3c6.3,0,11.4,5.1,11.4,11.4v221.8h0ZM702.4,366.2c0,6.3-5.1,11.4-11.4,11.4h-76.6c-6.3,0-11.4-5.1-11.4-11.4v-60.5c0-6.3,5.1-11.4,11.4-11.4h76.6c6.3,0,11.4,5.1,11.4,11.4v60.5Z"/>
</svg>