<?xml version="1.0" encoding="UTF-8"?>
<svg id="Layer_1" data-name="Layer 1" xmlns="http://www.w3.org/2000/svg" viewBox="0 0 1920 1080">
  <defs>
    <style>
      .cls-1 {
        fill: #fa864a;
      }
    </style>
  </defs>
  <path class="cls-1" d="M1784.74,926.21v64.12h-66.48c-62.61,0-122.07-20.07-171.97-58.03-49.58-37.72-84.93-89.45-102.24-149.6-23.85-82.91-69.16-159.44-131.02-221.32-96.86-96.84-225.58-150.49-362.48-151.1-67.49-.26-133.57,12.46-196.28,37.9-62.74,25.46-118.99,62.31-167.17,109.55-99.82,97.9-154.81,228.75-154.81,368.48v64.12h-64.12c-73.92,0-141.76-33.9-186.15-93.01-44.32-59.02-57.97-133.5-37.4-204.32,9.07-31.23,20.12-62.33,32.86-92.45,42.13-99.61,102.42-189.06,179.22-265.85,76.79-76.8,166.24-137.09,265.85-179.22,103.24-43.67,212.8-65.81,325.66-65.81s222.42,22.14,325.66,65.81c99.6,42.13,189.05,102.42,265.85,179.2,76.77,76.77,137.08,166.24,179.2,265.86,21.83,51.62,38.28,104.82,49.28,159.23,11,54.39,16.53,110,16.53,166.43Z"/>
  <path class="cls-1" d="M1388.42,948.9v33.31h-34.53c-32.53,0-63.41-10.43-89.33-30.14-25.76-19.59-44.12-46.47-53.11-77.71-12.39-43.07-35.92-82.82-68.06-114.97-50.31-50.3-117.18-78.18-188.29-78.49-35.06-.13-69.38,6.47-101.96,19.69-32.59,13.22-61.81,32.37-86.84,56.91-51.85,50.85-80.42,118.83-80.42,191.41v33.31h-33.31c-38.4,0-73.64-17.61-96.7-48.31-23.02-30.66-30.11-69.35-19.43-106.14,4.71-16.22,10.45-32.38,17.07-48.02,21.88-51.75,53.2-98.21,93.1-138.1,39.89-39.9,86.35-71.21,138.1-93.1,53.63-22.68,110.54-34.18,169.17-34.18s115.54,11.5,169.17,34.18c51.74,21.88,98.2,53.2,138.1,93.09,39.88,39.88,71.21,86.35,93.09,138.11,11.34,26.81,19.89,54.45,25.6,82.71,5.71,28.25,8.59,57.14,8.59,86.45Z"/>
</svg>