<?xml version="1.0" encoding="UTF-8"?>
<svg id="Capa_1" xmlns="http://www.w3.org/2000/svg" version="1.1" viewBox="0 0 800 800">
  <!-- Generator: Adobe Illustrator 29.4.0, SVG Export Plug-In . SVG Version: 2.1.0 Build 152)  -->
  <defs>
    <style>
      .st0 {
        fill: #fa864a;
      }
    </style>
  </defs>
  <circle class="st0" cx="398.5" cy="145.7" r="93.4"/>
  <path class="st0" d="M725.5,402.7l-87.1-18.2c-29.7-6.2-58.9,7.4-74.4,31.6-15-7.7-31.2-14.4-48.4-19.9v-51.8c0-39.2-32-71.2-71.1-71.2h-89c-39.2,0-71.2,32-71.2,71.2v52c-17,5.4-33,12.1-48.2,19.8-15.5-24.3-44.8-38-74.5-31.8l-87.1,18.2c-38.2,8-63.1,45.9-55.1,84.3l21.9,104.5c7.9,38.3,45.9,63.1,84.2,55.1l27.6-5.8c13.8,20.4,32.9,39.1,57.3,55.1,50.9,33.4,118.2,51.8,189.5,51.8,109.2,0,203.3-43.9,246.6-107l28,5.9c38.2,8,76.2-16.8,84.1-55.1l21.9-104.5c8-38.4-16.9-76.3-55.1-84.3ZM400,712c-64.5,0-124.9-16.2-170-45.9-15.4-10.1-28.3-21.3-38.5-33.3l21.1-4.4c38.3-8,63.1-45.9,55.1-84.2l-19.6-93.9c11.4-6.1,23.4-11.5,36.2-16.1v17.1c0,39.1,32,71.1,71.2,71.1h89c39.1,0,71.1-32.1,71.1-71.1v-18c13,4.6,25.2,10,36.6,16l-19.9,95c-7.9,38.3,16.9,76.3,55.2,84.2l21.3,4.5c-39.8,47.1-118.4,79.2-208.8,79.2Z"/>
  <circle class="st0" cx="706.6" cy="268.5" r="93.4"/>
  <path class="st0" d="M112.6,360c50.5-10.6,82.8-60.1,72.4-110.6-10.6-50.5-60.1-82.9-110.7-72.3C23.8,187.6-8.6,237.1,2,287.6c10.5,50.5,60,82.9,110.6,72.4Z"/>
</svg>