<?xml version="1.0" encoding="UTF-8"?>
<svg id="Layer_1" xmlns="http://www.w3.org/2000/svg" version="1.1" viewBox="0 0 800 800">
  <!-- Generator: Adobe Illustrator 29.4.0, SVG Export Plug-In . SVG Version: 2.1.0 Build 152)  -->
  <defs>
    <style>
      .st0 {
        fill: none;
      }

      .st1 {
        isolation: isolate;
        opacity: .2;
      }

      .st2 {
        display: none;
      }

      .st3 {
        fill: #fa864a;
      }

      .st4 {
        opacity: .5;
      }
    </style>
  </defs>
  <g class="st2">
    <path class="st1" d="M0,0v800h800V0H0ZM767.7,767.7H32.3V32.3h735.4s0,735.4,0,735.4Z"/>
  </g>
  <g class="st2">
    <rect class="st0" x="30.8" y="30.8" width="738.5" height="738.5"/>
  </g>
  <g class="st2">
    <g class="st4">
      <line class="st0" x1="769.2" y1="30.8" x2="30.8" y2="769.2"/>
      <line class="st0" x1="30.8" y1="30.8" x2="767.7" y2="769.2"/>
      <rect class="st0" x="30.8" y="30.8" width="30.8" height="738.5"/>
      <rect class="st0" x="61.5" y="30.8" width="30.8" height="738.5"/>
      <rect class="st0" x="92.3" y="30.8" width="30.8" height="738.5"/>
      <rect class="st0" x="123.1" y="30.8" width="30.8" height="738.5"/>
      <rect class="st0" x="153.8" y="30.8" width="30.8" height="738.5"/>
      <rect class="st0" x="184.6" y="30.8" width="30.8" height="738.5"/>
      <rect class="st0" x="215.4" y="30.8" width="30.8" height="738.5"/>
      <rect class="st0" x="246.2" y="30.8" width="30.8" height="738.5"/>
      <rect class="st0" x="276.9" y="30.8" width="30.8" height="738.5"/>
      <rect class="st0" x="307.7" y="30.8" width="30.8" height="738.5"/>
      <rect class="st0" x="338.5" y="30.8" width="30.8" height="738.5"/>
      <rect class="st0" x="369.2" y="30.8" width="30.8" height="738.5"/>
      <rect class="st0" x="400" y="30.8" width="30.8" height="738.5"/>
      <rect class="st0" x="430.8" y="30.8" width="30.8" height="738.5"/>
      <rect class="st0" x="461.5" y="30.8" width="30.8" height="738.5"/>
      <rect class="st0" x="492.3" y="30.8" width="30.8" height="738.5"/>
      <rect class="st0" x="523.1" y="30.8" width="30.8" height="738.5"/>
      <rect class="st0" x="553.8" y="30.8" width="30.8" height="738.5"/>
      <rect class="st0" x="584.6" y="30.8" width="30.8" height="738.5"/>
      <rect class="st0" x="615.4" y="30.8" width="30.8" height="738.5"/>
      <rect class="st0" x="646.2" y="30.8" width="30.8" height="738.5"/>
      <rect class="st0" x="676.9" y="30.8" width="30.8" height="738.5"/>
      <rect class="st0" x="707.7" y="30.8" width="30.8" height="738.5"/>
      <rect class="st0" x="738.5" y="30.8" width="30.8" height="738.5"/>
      <rect class="st0" x="30.8" y="738.5" width="738.5" height="30.8"/>
      <rect class="st0" x="30.8" y="707.7" width="738.5" height="30.8"/>
      <rect class="st0" x="30.8" y="676.9" width="738.5" height="30.8"/>
      <rect class="st0" x="30.8" y="646.2" width="738.5" height="30.8"/>
      <rect class="st0" x="30.8" y="615.4" width="738.5" height="30.8"/>
      <rect class="st0" x="30.8" y="584.6" width="738.5" height="30.8"/>
      <rect class="st0" x="30.8" y="553.8" width="738.5" height="30.8"/>
      <rect class="st0" x="30.8" y="523.1" width="738.5" height="30.8"/>
      <rect class="st0" x="30.8" y="492.3" width="738.5" height="30.8"/>
      <rect class="st0" x="30.8" y="461.5" width="738.5" height="30.8"/>
      <rect class="st0" x="30.8" y="430.8" width="738.5" height="30.8"/>
      <rect class="st0" x="30.8" y="400" width="738.5" height="30.8"/>
      <rect class="st0" x="30.8" y="369.2" width="738.5" height="30.8"/>
      <rect class="st0" x="30.8" y="338.5" width="738.5" height="30.8"/>
      <rect class="st0" x="30.8" y="307.7" width="738.5" height="30.8"/>
      <rect class="st0" x="30.8" y="276.9" width="738.5" height="30.8"/>
      <rect class="st0" x="30.8" y="246.2" width="738.5" height="30.8"/>
      <rect class="st0" x="30.8" y="215.4" width="738.5" height="30.8"/>
      <rect class="st0" x="30.8" y="184.6" width="738.5" height="30.8"/>
      <rect class="st0" x="30.8" y="153.8" width="738.5" height="30.8"/>
      <rect class="st0" x="30.8" y="123.1" width="738.5" height="30.8"/>
      <rect class="st0" x="30.8" y="92.3" width="738.5" height="30.8"/>
      <rect class="st0" x="30.8" y="61.5" width="738.5" height="30.8"/>
      <rect class="st0" x="30.8" y="30.8" width="738.5" height="30.8"/>
    </g>
  </g>
  <g>
    <path class="st3" d="M396.9,410.8c-18.5,1.5-35.4-6.2-53.8-12.3-96.9-32.3-195.4-64.6-292.3-96.9-6.2-3.1-10.8-4.6-15.4-9.2-6.2-4.6-6.2-10.8,0-15.4,4.6-3.1,10.8-7.7,16.9-9.2,104.6-30.8,207.7-61.5,312.3-93.8,23.1-7.7,47.7-7.7,72.3,0,103.1,30.8,206.2,61.5,309.2,92.3,6.2,3.1,12.3,4.6,18.5,9.2,7.7,4.6,7.7,12.3,0,16.9-4.6,3.1-9.2,6.2-15.4,7.7-103.1,33.8-206.2,69.2-310.8,103.1-13.8,6.2-26.2,7.7-41.5,7.7Z"/>
    <path class="st3" d="M192.3,415.4c-15.4-3.1-18.5,6.2-18.5,13.8v116.9c0,13.8,4.6,21.5,13.8,30.8,3.1,3.1,7.7,6.2,10.8,9.2,24.6,16.9,53.8,27.7,83.1,35.4,58.5,15.4,116.9,18.5,176.9,10.8,38.5-4.6,76.9-15.4,112.3-30.8,15.4-7.7,30.8-15.4,41.5-27.7,7.7-7.7,10.8-15.4,9.2-26.2,1.5-36.9,1.5-75.4,1.5-113.8s-15.4-18.5-21.5-16.9c-53.8,18.5-110.8,35.4-164.6,53.8-27.7,9.2-53.8,9.2-80,0l-164.6-55.4Z"/>
    <path class="st3" d="M706.2,380c-4.6,1.5-6.2,3.1-6.2,9.2v104.6c0,3.1-1.5,7.7-3.1,10.8-7.7,18.5-15.4,36.9-21.5,55.4-6.2,16.9-3.1,35.4,9.2,47.7,3.1,4.6,9.2,9.2,13.8,12.3,4.6,4.6,12.3,6.2,18.5,7.7,10.8,1.5,20-4.6,27.7-10.8,3.1-3.1,7.7-6.2,10.8-10.8,9.2-12.3,10.8-27.7,7.7-41.5-4.6-21.5-13.8-40-23.1-58.5-3.1-3.1-3.1-9.2-3.1-12.3v-113.8c0-7.7-6.2-6.2-9.2-4.6l-21.5,4.6Z"/>
  </g>
</svg>