<?xml version="1.0" encoding="UTF-8"?>
<svg id="Layer_1" xmlns="http://www.w3.org/2000/svg" version="1.1" viewBox="0 0 800 800">
  <!-- Generator: Adobe Illustrator 29.4.0, SVG Export Plug-In . SVG Version: 2.1.0 Build 152)  -->
  <defs>
    <style>
      .st0 {
        fill: #fa864a;
      }
    </style>
  </defs>
  <path class="st0" d="M709.4,109.2L413.5,2.4C409.2.8,404.6,0,399.9,0c-4.6,0-9.3.8-13.7,2.4L91.4,109.2c-15.9,5.8-27.1,20.9-27.1,37.9v253c0,56.5,18.2,113,52.9,167.9,26.6,42.1,63.7,83.4,109.6,122.7,76.7,65.7,152.9,103.7,156.1,105.3,5.6,2.8,11.7,4.2,17.9,4.2,6,0,12.1-1.4,17.7-4.1,3.2-1.6,79.3-38.9,156.1-104.4,45.9-39.2,82.4-80.4,109.1-122.7,34.7-55,52-111.9,52-168.9v-253c0-17-10.3-32.1-26.3-37.9h0ZM128.8,399.8v-222.6c0-8.5,5.2-16,13.2-18.9l250.6-91.2c2.2-.8,4.8-1.4,7.5-1.4v334.3h273.1s0,.4,0,.6c0,72.9-36.7,145.1-109.1,215.4-56.5,54.9-120.6,94.1-153.6,112.6-3.1,1.7-7.8,2.5-10.5,2.5v-331.2H128.8Z"/>
</svg>